<svg xmlns="http://www.w3.org/2000/svg" width="405" height="720" viewBox="0 0 405 720">
  <defs>
    <linearGradient id="bg2" x1="0.5" y1="0" x2="0.5" y2="1">
      <stop offset="0%" stop-color="#1a0a2e"/>
      <stop offset="50%" stop-color="#2d1b4e"/>
      <stop offset="100%" stop-color="#0f3460"/>
    </linearGradient>
    <radialGradient id="glow2" cx="50%" cy="40%" r="50%">
      <stop offset="0%" stop-color="rgba(168,85,247,0.2)"/>
      <stop offset="100%" stop-color="rgba(168,85,247,0)"/>
    </radialGradient>
    <linearGradient id="teeth2" x1="0" y1="0" x2="0" y2="1">
      <stop offset="0%" stop-color="#f5f5f0"/>
      <stop offset="100%" stop-color="#d4c5a0"/>
    </linearGradient>
    <filter id="shadow2">
      <feDropShadow dx="0" dy="4" stdDeviation="8" flood-color="rgba(168,85,247,0.4)"/>
    </filter>
  </defs>
  <rect width="405" height="720" fill="url(#bg2)"/>
  <rect width="405" height="720" fill="url(#glow2)"/>
  <circle cx="80" cy="650" r="200" fill="rgba(168,85,247,0.04)"/>
  <circle cx="350" cy="100" r="120" fill="rgba(168,85,247,0.03)"/>
  <g transform="translate(202,260) scale(1.15)" filter="url(#shadow2)">
    <path d="M-50,-50 C-50,-75 -20,-75 -20,-50 C-15,-30 -12,0 -18,25 C-20,35 -28,40 -32,35 C-36,30 -42,10 -45,-10 C-48,-30 -50,-40 -50,-50Z" fill="url(#teeth2)" opacity="0.9"/>
    <path d="M20,-50 C20,-75 50,-75 50,-50 C50,-40 48,-30 45,-10 C42,10 36,30 32,35 C28,40 20,35 18,25 C12,0 15,-30 20,-50Z" fill="url(#teeth2)" opacity="0.9"/>
    <circle cx="0" cy="-60" r="4" fill="#a855f7" opacity="0.8"/>
    <line x1="-6" y1="-60" x2="6" y2="-60" stroke="#a855f7" stroke-width="1.5" opacity="0.5"/>
    <line x1="0" y1="-66" x2="0" y2="-54" stroke="#a855f7" stroke-width="1.5" opacity="0.5"/>
  </g>
  <circle cx="100" cy="200" r="3" fill="#a855f7" opacity="0.6"/>
  <circle cx="310" cy="350" r="2.5" fill="#c084fc" opacity="0.5"/>
  <circle cx="150" cy="450" r="2" fill="#a855f7" opacity="0.4"/>
  <circle cx="202" cy="440" r="36" fill="rgba(168,85,247,0.85)" filter="url(#shadow2)"/>
  <polygon points="190,422 190,458 220,440" fill="white"/>
  <text x="202" y="520" text-anchor="middle" font-family="Arial, sans-serif" font-size="20" font-weight="bold" fill="white" opacity="0.9">نصيحة طبية</text>
  <text x="202" y="550" text-anchor="middle" font-family="Arial, sans-serif" font-size="16" fill="#a855f7" opacity="0.8">٢</text>
  <rect x="0" y="670" width="405" height="50" fill="rgba(0,0,0,0.5)"/>
  <text x="202" y="700" text-anchor="middle" font-family="Arial, sans-serif" font-size="13" fill="rgba(255,255,255,0.6)">اضغط للمشاهدة</text>
</svg>